<svg width="34" height="34" viewBox="0 0 34 34" fill="none" xmlns="http://www.w3.org/2000/svg">
<path d="M32.6241 20.1525C32.2536 19.7799 31.8288 19.5097 31.3756 19.3581C30.9225 19.2066 30.4504 19.177 29.9882 19.2711C32.6482 15.7676 33.9938 12.2845 33.9938 8.86969C33.9938 3.97852 30.9782 0.000173378 27.2715 0.000173378C26.288 -0.00788436 25.315 0.265011 24.4209 0.799701C23.5268 1.33439 22.7332 2.11792 22.096 3.09527C21.4587 2.11792 20.6651 1.33439 19.771 0.799701C18.8769 0.265011 17.9039 -0.00788436 16.9204 0.000173378C13.2137 0.000173378 10.1981 3.97852 10.1981 8.86969C10.1981 10.9023 10.657 12.8776 11.623 14.9675C10.8319 15.229 10.1099 15.7654 9.53384 16.5197L6.32992 20.6957H2.26625C1.6652 20.6957 1.08877 21.0072 0.66377 21.5617C0.238765 22.1161 0 22.8681 0 23.6522L0 31.0435C0 31.8276 0.238765 32.5796 0.66377 33.1341C1.08877 33.6885 1.6652 34 2.26625 34H16.9969C17.0895 33.9999 17.1818 33.985 17.2717 33.9557L26.3367 30.9991C26.3944 30.9811 26.4509 30.9564 26.5052 30.9252L32.0108 27.8689L32.0731 27.832C32.6022 27.4871 33.0554 26.9721 33.3898 26.3356C33.7242 25.699 33.9288 24.9619 33.9845 24.1937C34.0402 23.4254 33.9451 22.6514 33.708 21.9443C33.471 21.2373 33.1 20.6207 32.6298 20.1525H32.6241ZM16.9204 2.95668C17.798 2.93992 18.6595 3.26503 19.3948 3.89044C20.13 4.51585 20.7056 5.41312 21.0478 6.46753C21.1332 6.73866 21.2784 6.97056 21.465 7.13376C21.6517 7.29696 21.8713 7.3841 22.096 7.3841C22.3206 7.3841 22.5402 7.29696 22.7269 7.13376C22.9135 6.97056 23.0587 6.73866 23.1441 6.46753C23.4863 5.41312 24.0619 4.51585 24.7971 3.89044C25.5324 3.26503 26.3939 2.93992 27.2715 2.95668C29.6865 2.95668 31.7275 5.66373 31.7275 8.86969C31.7275 12.4748 29.491 16.5529 25.2602 20.6772L23.6894 21.1484C23.8273 20.3886 23.8315 19.5979 23.7019 18.8356C23.5722 18.0733 23.3119 17.3592 22.9406 16.7468C22.5693 16.1344 22.0965 15.6396 21.5578 15.2994C21.019 14.9593 20.4282 14.7826 19.8297 14.7827H14.2604C13.038 12.6318 12.4644 10.7397 12.4644 8.86969C12.4644 5.66373 14.5054 2.95668 16.9204 2.95668ZM2.26625 23.6522H5.66563V31.0435H2.26625V23.6522ZM31.0802 25.1693L25.6979 28.1591L16.8552 31.0435H7.93188V22.7856L11.1372 18.6058C11.3469 18.3301 11.5965 18.1115 11.8715 17.9627C12.1465 17.8139 12.4523 16.9988 12.75 17H19.8405C20.2913 17 20.7128 17.9728 21.0316 18.3887C21.3503 18.8045 21.5294 19.3685 21.5294 19.9566C21.5294 20.5447 21.3503 21.1087 21.0316 21.5245C20.7128 21.9404 20.2805 22.174 19.8297 22.174H15.8638C15.5632 22.174 15.275 22.3297 15.0625 22.6069C14.85 22.8842 14.7306 23.2602 14.7306 23.6522C14.7306 24.0443 14.85 24.4203 15.0625 24.6975C15.275 24.9747 15.5632 25.1305 15.8638 25.1305H20.3963C20.4816 25.1302 20.5666 25.1178 20.6498 25.0935L30.1397 22.246L30.1836 22.2313C30.4733 22.1263 30.7825 22.1649 31.0518 22.3395C31.321 22.5141 31.5312 22.8124 31.6419 23.1771C31.7527 23.5417 31.7561 23.9469 31.6517 24.3147C31.5472 24.6825 31.3421 24.9869 31.076 25.1693H31.0802Z" fill="#1E3A5F"/>
</svg>
