<svg width="32" height="32" viewBox="0 0 32 32" fill="none" xmlns="http://www.w3.org/2000/svg">
<path d="M9.03125 13.9728C9.03125 13.4851 9.03125 12.9103 9.5625 12.9103C10.0938 12.9103 10.3303 12.9229 10.8375 12.9229L14.875 12.9197L14.875 9.19156C14.875 8.70384 14.875 8.12906 14.875 7.59781C14.875 6.90625 15.4303 6.90625 15.9375 6.90625C16.4447 6.90625 17 6.90625 17 7.59781C17 8.12906 17 8.707 17 9.19472V12.9229H21.0375C21.5447 12.9229 21.7813 12.9103 22.3125 12.9103C22.8438 12.9103 22.8438 13.4851 22.8438 13.9728C22.8438 14.4605 22.8438 15.0353 22.3125 15.0353C21.7813 15.0353 21.5447 15.0353 21.0375 15.0353H17L17 19.0024C17 19.4901 17 19.8166 17 20.3478C17 20.7188 16.4447 20.8414 15.9375 20.8414C15.4303 20.8414 14.875 20.7188 14.875 20.1875C14.875 19.6562 14.875 19.4901 14.875 19.0024L14.875 15.0353H10.8375C10.3303 15.0353 10.0938 15.0353 9.5625 15.0353C9.03125 15.0353 9.03125 14.4605 9.03125 13.9728ZM31.875 3.06491V11.6466C31.875 19.9663 27.6802 25.0127 24.1613 27.7818C20.3825 30.7533 16.6005 31.7662 16.4411 31.8107C16.1113 31.8965 15.7637 31.8965 15.4339 31.8107C15.2745 31.7677 11.4925 30.7533 7.71375 27.7818C4.19476 25.0127 0 19.9663 0 11.6466V3.06491C0 2.25204 0.335827 1.47247 0.933597 0.89769C1.53137 0.322909 2.34213 0 3.1875 0H28.6875C29.5329 0 30.3436 0.322909 30.9414 0.89769C31.5392 1.47247 31.875 2.25204 31.875 3.06491ZM29.2188 2.65625H2.65625L2.72372 12.2979C2.72372 17.7703 5.9787 22.7426 10.0938 26.0312C11.8573 27.4312 13.7889 28.6259 15.9375 29.3791C18.0858 28.6253 20.5486 27.4307 22.3125 26.0312C26.4276 22.7426 29.2188 17.732 29.2188 12.2596L29.2188 2.65625Z" fill="#1E3A5F"/>
</svg>
