<svg width="24" height="24" viewBox="0 0 24 24" fill="none" xmlns="http://www.w3.org/2000/svg">
<path d="M7.875 12C7.875 11.7016 7.99353 11.4155 8.2045 11.2045C8.41548 10.9935 8.70163 10.875 9 10.875H10.875V9C10.875 8.70163 10.9935 8.41548 11.2045 8.2045C11.4155 7.99353 11.7016 7.875 12 7.875C12.2984 7.875 12.5845 7.99353 12.7955 8.2045C13.0065 8.41548 13.125 8.70163 13.125 9V10.875H15C15.2984 10.875 15.5845 10.9935 15.7955 11.2045C16.0065 11.4155 16.125 11.7016 16.125 12C16.125 12.2984 16.0065 12.5845 15.7955 12.7955C15.5845 13.0065 15.2984 13.125 15 13.125H13.125V15C13.125 15.2984 13.0065 15.5845 12.7955 15.7955C12.5845 16.0065 12.2984 16.125 12 16.125C11.7016 16.125 11.4155 16.0065 11.2045 15.7955C10.9935 15.5845 10.875 15.2984 10.875 15V13.125H9C8.70163 13.125 8.41548 13.0065 8.2045 12.7955C7.99353 12.5845 7.875 12.2984 7.875 12ZM21.375 5.25V10.5C21.375 15.5897 18.9075 18.6769 16.8375 20.3709C14.6147 22.1887 12.39 22.8084 12.2963 22.8356C12.1022 22.8881 11.8978 22.8881 11.7037 22.8356C11.61 22.8094 9.38531 22.1887 7.1625 20.3709C5.0925 18.6769 2.625 15.5897 2.625 10.5V5.25C2.625 4.75272 2.82254 4.27581 3.17417 3.92417C3.52581 3.57254 4.00272 3.375 4.5 3.375H19.5C19.9973 3.375 20.4742 3.57254 20.8258 3.92417C21.1775 4.27581 21.375 4.75272 21.375 5.25ZM19.125 5.625H4.875V10.5C4.875 13.8478 6.10219 16.5647 8.52281 18.5766C9.56019 19.433 10.7361 20.1061 12 20.5669C13.2637 20.1058 14.4396 19.4327 15.4772 18.5766C17.8978 16.5647 19.125 13.8478 19.125 10.5V5.625Z" fill="#FAFAF8"/>
</svg>
