<svg width="34" height="34" viewBox="0 0 34 34" fill="none" xmlns="http://www.w3.org/2000/svg">
<path d="M30.2266 18.0876L16.9522 32.875L3.67788 18.0876C2.80231 17.1292 2.11264 15.9774 1.65229 14.7045C1.19195 13.4317 0.970899 12.0654 1.00307 10.6917C1.03524 9.31807 1.31993 7.96678 1.83921 6.72295C2.3585 5.47912 3.10112 4.3697 4.02033 3.46455C4.93954 2.55939 6.01541 1.87812 7.18021 1.46363C8.345 1.04913 9.57348 0.910398 10.7883 1.05616C12.0031 1.20192 13.1779 1.62901 14.2387 2.31055C15.2996 2.99209 16.2235 3.91331 16.9522 5.01619C17.6842 3.92131 18.6091 3.00814 19.6692 2.33384C20.7294 1.65953 21.9018 1.23861 23.1132 1.0974C24.3246 0.956199 25.5489 1.09776 26.7094 1.51322C27.8699 1.92868 28.9417 2.6091 29.8577 3.51189C30.7737 4.41469 31.5141 5.52042 32.0327 6.75989C32.5513 7.99936 32.8368 9.34588 32.8714 10.7152C32.9061 12.0845 32.689 13.4471 32.2339 14.7177C31.7789 15.9883 31.0955 17.1396 30.2266 18.0995" stroke="#1E3A5F" stroke-width="2" stroke-linecap="round" stroke-linejoin="round"/>
<path d="M16.953 5.00391L11.1247 11.5595C10.7928 11.9328 10.6064 12.4391 10.6064 12.967C10.6064 13.4949 10.7928 14.0011 11.1247 14.3745L12.0857 15.4554C13.307 16.8291 15.2893 16.8291 16.5105 15.4554L18.2804 13.4647C18.8032 12.876 19.4239 12.409 20.1072 12.0903C20.7906 11.7717 21.523 11.6077 22.2627 11.6077C23.0024 11.6077 23.7349 11.7717 24.4182 12.0903C25.1015 12.409 25.7223 12.876 26.245 13.4647L30.2274 17.9439M17.8379 23.9162L21.3778 27.8977M22.2627 18.9393L25.8026 22.9208" stroke="#1E3A5F" stroke-width="2" stroke-linecap="round" stroke-linejoin="round"/>
</svg>
