<svg width="34" height="34" viewBox="0 0 34 34" fill="none" xmlns="http://www.w3.org/2000/svg">
<g clip-path="url(#clip0_783_800)">
<path d="M25.0746 13.0051C25.1975 12.8551 25.2892 12.6819 25.3441 12.4959C25.399 12.3098 25.4161 12.1147 25.3943 11.9219C25.3725 11.7292 25.3123 11.5427 25.2172 11.3736C25.1222 11.2045 24.9942 11.0562 24.8408 10.9375C24.5288 10.6934 24.1339 10.5808 23.7402 10.6237C23.3464 10.6665 22.9849 10.8615 22.7328 11.167L15.6991 19.7945L11.9378 16.9045C11.6306 16.6544 11.2378 16.5342 10.8432 16.5696C10.4487 16.6049 10.0835 16.7929 9.82556 17.0936C9.69954 17.241 9.60436 17.4123 9.54564 17.5971C9.48692 17.782 9.46585 17.9768 9.48368 18.1699C9.50151 18.3631 9.55788 18.5507 9.64944 18.7217C9.74101 18.8927 9.86593 19.0436 10.0168 19.1655L14.9468 23.0117C15.2581 23.2649 15.657 23.3847 16.0563 23.3449C16.4556 23.3051 16.823 23.1089 17.0782 22.7992L25.0682 12.9817L25.0746 13.0051Z" fill="#1E3A5F"/>
<path fill-rule="evenodd" clip-rule="evenodd" d="M13.8339 1.51738C14.9686 0.684382 15.536 0.267882 16.1501 0.106382C16.6989 -0.0328564 17.2737 -0.0328564 17.8225 0.106382C18.443 0.267882 19.0125 0.684382 20.1388 1.51738L21.5774 2.57351C21.9705 2.86251 22.1681 3.00701 22.3806 3.11963C22.5705 3.2188 22.7681 3.30097 22.9735 3.36613C23.2051 3.43626 23.4453 3.47238 23.9276 3.54676L25.6914 3.81663C27.0833 4.02913 27.7781 4.13751 28.3264 4.46263C28.8151 4.74951 29.2231 5.15751 29.51 5.64626C29.8351 6.19876 29.9414 6.89576 30.156 8.28126L30.4259 10.045C30.5003 10.5274 30.5364 10.7696 30.6065 11.0013C30.6703 11.2067 30.7524 11.4036 30.853 11.592C30.9678 11.8045 31.1101 12.0021 31.3991 12.3953L32.4553 13.8339C33.2883 14.9686 33.7048 15.536 33.8663 16.1501C34.0055 16.6989 34.0055 17.2737 33.8663 17.8225C33.7069 18.443 33.2883 19.0125 32.4553 20.1388L31.3991 21.5774C31.1969 21.8309 31.0144 22.0994 30.853 22.3806C30.7522 22.5707 30.6697 22.7699 30.6065 22.9756C30.5364 23.2051 30.5003 23.4453 30.4259 23.9276L30.156 25.6914C29.9435 27.0833 29.8351 27.7781 29.51 28.3264C29.2231 28.8151 28.8151 29.2231 28.3264 29.51C27.7739 29.8351 27.0769 29.9414 25.6914 30.156L23.9276 30.4259C23.6054 30.4624 23.2864 30.5235 22.9735 30.6086C22.7681 30.671 22.5705 30.7531 22.3806 30.8551C22.1681 30.9678 21.9705 31.1101 21.5774 31.4013L20.1388 32.4574C19.004 33.2904 18.4366 33.7069 17.8225 33.8684C17.2737 34.0076 16.6989 34.0076 16.1501 33.8684C15.5296 33.7069 14.9601 33.2904 13.8339 32.4574L12.3953 31.4013C12.1418 31.1991 11.8733 31.0165 11.592 30.8551C11.4026 30.7544 11.2041 30.6719 10.9991 30.6086C10.6862 30.5235 10.3672 30.4624 10.045 30.4259L8.28126 30.156C6.88938 29.9435 6.19238 29.8373 5.64626 29.51C5.15924 29.2203 4.75237 28.8134 4.46263 28.3264C4.13751 27.7739 4.03126 27.0769 3.81663 25.6914L3.54676 23.9276C3.47238 23.4453 3.43626 23.2051 3.36613 22.9735C3.30413 22.7681 3.22154 22.5695 3.11963 22.3806C2.95828 22.0994 2.77571 21.8309 2.57351 21.5774L1.51738 20.1388C0.684382 19.004 0.267882 18.4388 0.106382 17.8225C-0.0328564 17.2737 -0.0328564 16.6989 0.106382 16.1501C0.265757 15.5296 0.684382 14.9601 1.51738 13.8339L2.57351 12.3953C2.86251 12.0021 3.00701 11.8045 3.11963 11.592C3.2188 11.4036 3.30096 11.206 3.36613 10.9991C3.43626 10.7675 3.47238 10.5274 3.54676 10.045L3.81663 8.28126C4.02913 6.88938 4.13751 6.19238 4.46263 5.64626C4.74951 5.15751 5.15751 4.75376 5.64626 4.46263C6.19876 4.13751 6.89576 4.03126 8.28126 3.81663L10.045 3.54676C10.5274 3.47451 10.7696 3.43626 10.9991 3.36613C11.2045 3.30238 11.4022 3.22022 11.592 3.11963C11.8045 3.00701 12.0021 2.86251 12.3953 2.57351L13.8339 1.51738ZM18.8914 3.23013L20.4023 4.33938C20.7231 4.57526 21.0398 4.80901 21.3925 4.99601C21.7042 5.16176 22.0272 5.29563 22.3615 5.39763C22.7437 5.50332 23.1328 5.58214 23.526 5.63351L25.379 5.91826C26.9536 6.16051 27.1491 6.22638 27.2639 6.29438C27.4438 6.40205 27.5869 6.54513 27.6931 6.72363C27.7611 6.83838 27.8291 7.03388 28.0693 8.60851L28.354 10.4615C28.4054 10.8547 28.4842 11.2438 28.5899 11.626C28.6933 11.9632 28.8272 12.2862 28.9915 12.595C29.1785 12.9478 29.4123 13.2644 29.6481 13.5853L30.7574 15.0961C31.7009 16.3796 31.7901 16.5645 31.8241 16.6963C31.8731 16.8959 31.8731 17.1044 31.8241 17.304C31.7901 17.4336 31.7009 17.6185 30.7574 18.9041L29.6481 20.415C29.4123 20.7359 29.1785 21.0525 28.9915 21.4053C28.8272 21.7148 28.6927 22.0393 28.5899 22.3743C28.4842 22.7564 28.4054 23.1456 28.354 23.5388L28.0693 25.3918C27.827 26.9664 27.7611 27.1619 27.6931 27.2766C27.5867 27.4522 27.4394 27.5994 27.2639 27.7059C27.1491 27.7739 26.9536 27.8419 25.379 28.082L23.526 28.3668C23.1328 28.4181 22.7437 28.4969 22.3615 28.6026C22.0265 28.7055 21.702 28.84 21.3925 29.0043C21.0398 29.1913 20.7231 29.425 20.4023 29.6609L18.8914 30.7701C17.6079 31.7136 17.423 31.8029 17.2913 31.8369C17.0916 31.8859 16.8831 31.8859 16.6835 31.8369C16.5539 31.8029 16.369 31.7136 15.0834 30.7701L13.5725 29.6609C13.2581 29.4192 12.9273 29.1998 12.5823 29.0043C12.2727 28.84 11.9483 28.7055 11.6133 28.6026C11.2311 28.4969 10.842 28.4181 10.4488 28.3668L8.59576 28.082C7.02113 27.8398 6.82563 27.7739 6.71088 27.7059C6.53533 27.5994 6.38807 27.4522 6.28163 27.2766C6.21363 27.1619 6.14563 26.9664 5.90551 25.3918L5.62076 23.5388C5.56939 23.1456 5.49057 22.7564 5.38488 22.3743C5.28204 22.0393 5.14756 21.7148 4.98326 21.4053C4.79626 21.0525 4.56251 20.7359 4.32663 20.415L3.21738 18.9041C2.27388 17.6206 2.18463 17.4358 2.15063 17.304C2.10164 17.1044 2.10164 16.8959 2.15063 16.6963C2.18463 16.5666 2.27388 16.3818 3.21738 15.0961L4.32663 13.5853C4.56251 13.2644 4.79626 12.9478 4.98326 12.595C5.14759 12.2833 5.28147 11.9603 5.38488 11.626C5.49057 11.2438 5.56939 10.8547 5.62076 10.4615L5.90551 8.60851C6.14776 7.03388 6.21363 6.83838 6.28163 6.72363C6.38807 6.54808 6.53533 6.40082 6.71088 6.29438C6.82563 6.22638 7.02113 6.15838 8.59576 5.91826L10.4488 5.63351C10.842 5.58214 11.2311 5.50332 11.6133 5.39763C11.9504 5.29422 12.2734 5.16034 12.5823 4.99601C12.935 4.80901 13.2516 4.57526 13.5725 4.33938L15.0834 3.23013C16.3669 2.28663 16.5518 2.19738 16.6835 2.16338C16.8831 2.11439 17.0916 2.11439 17.2913 2.16338C17.4209 2.19738 17.6058 2.28663 18.8914 3.23013Z" fill="#1E3A5F"/>
</g>
<defs>
<clipPath id="clip0_783_800">
<rect width="34" height="34" fill="white"/>
</clipPath>
</defs>
</svg>
