<svg width="24" height="24" viewBox="0 0 24 24" fill="none" xmlns="http://www.w3.org/2000/svg">
<g clip-path="url(#clip0_619_835)">
<path d="M17.7001 9.17997C17.7869 9.07408 17.8516 8.95186 17.8904 8.82053C17.9291 8.68921 17.9412 8.55144 17.9258 8.41538C17.9104 8.27932 17.8679 8.14772 17.8008 8.02836C17.7337 7.90901 17.6433 7.80431 17.5351 7.72047C17.3149 7.54819 17.0361 7.46872 16.7582 7.49898C16.4802 7.52924 16.2251 7.66684 16.0471 7.88247L11.0821 13.9725L8.42709 11.9325C8.21021 11.756 7.93296 11.6711 7.65445 11.6961C7.37593 11.721 7.11816 11.8537 6.93609 12.066C6.84714 12.1701 6.77995 12.2909 6.7385 12.4214C6.69705 12.5519 6.68218 12.6894 6.69477 12.8257C6.70735 12.9621 6.74714 13.0945 6.81177 13.2152C6.87641 13.3359 6.96459 13.4424 7.07109 13.5285L10.5511 16.2435C10.7708 16.4222 11.0524 16.5068 11.3343 16.4787C11.6161 16.4506 11.8755 16.3121 12.0556 16.0935L17.6956 9.16347L17.7001 9.17997Z" fill="#FAFAF8"/>
<path fill-rule="evenodd" clip-rule="evenodd" d="M9.76469 1.07118C10.5657 0.483179 10.9662 0.189179 11.3997 0.0751792C11.7871 -0.0231066 12.1928 -0.0231066 12.5802 0.0751792C13.0182 0.189179 13.4202 0.483179 14.2152 1.07118L15.2307 1.81668C15.5082 2.02068 15.6477 2.12268 15.7977 2.20218C15.9317 2.27218 16.0712 2.33018 16.2162 2.37618C16.3797 2.42568 16.5492 2.45118 16.8897 2.50368L18.1347 2.69418C19.1172 2.84418 19.6077 2.92068 19.9947 3.15018C20.3397 3.35268 20.6277 3.64068 20.8302 3.98568C21.0597 4.37568 21.1347 4.86768 21.2862 5.84568L21.4767 7.09068C21.5292 7.43118 21.5547 7.60218 21.6042 7.76568C21.6492 7.91068 21.7072 8.04968 21.7782 8.18268C21.8592 8.33268 21.9597 8.47218 22.1637 8.74968L22.9092 9.76518C23.4972 10.5662 23.7912 10.9667 23.9052 11.4002C24.0035 11.7875 24.0035 12.1933 23.9052 12.5807C23.7927 13.0187 23.4972 13.4207 22.9092 14.2157L22.1637 15.2312C22.021 15.4101 21.8921 15.5997 21.7782 15.7982C21.707 15.9324 21.6488 16.073 21.6042 16.2182C21.5547 16.3802 21.5292 16.5497 21.4767 16.8902L21.2862 18.1352C21.1362 19.1177 21.0597 19.6082 20.8302 19.9952C20.6277 20.3402 20.3397 20.6282 19.9947 20.8307C19.6047 21.0602 19.1127 21.1352 18.1347 21.2867L16.8897 21.4772C16.6622 21.503 16.4371 21.5461 16.2162 21.6062C16.0712 21.6502 15.9317 21.7082 15.7977 21.7802C15.6477 21.8597 15.5082 21.9602 15.2307 22.1657L14.2152 22.9112C13.4142 23.4992 13.0137 23.7932 12.5802 23.9072C12.1928 24.0055 11.7871 24.0055 11.3997 23.9072C10.9617 23.7932 10.5597 23.4992 9.76469 22.9112L8.74919 22.1657C8.57027 22.0229 8.38072 21.8941 8.18219 21.7802C8.04849 21.7091 7.90837 21.6509 7.76369 21.6062C7.5428 21.5461 7.31765 21.503 7.09019 21.4772L5.84519 21.2867C4.86269 21.1367 4.37069 21.0617 3.98519 20.8307C3.64142 20.6262 3.35421 20.339 3.14969 19.9952C2.92019 19.6052 2.84519 19.1132 2.69369 18.1352L2.50319 16.8902C2.45069 16.5497 2.42519 16.3802 2.37569 16.2167C2.33192 16.0717 2.27363 15.9315 2.20169 15.7982C2.0878 15.5997 1.95892 15.4101 1.81619 15.2312L1.07069 14.2157C0.482691 13.4147 0.188691 13.0157 0.0746909 12.5807C-0.0235949 12.1933 -0.0235949 11.7875 0.0746909 11.4002C0.187191 10.9622 0.482691 10.5602 1.07069 9.76518L1.81619 8.74968C2.02019 8.47218 2.12219 8.33268 2.20169 8.18268C2.27169 8.04968 2.32969 7.91018 2.37569 7.76418C2.42519 7.60068 2.45069 7.43118 2.50319 7.09068L2.69369 5.84568C2.84369 4.86318 2.92019 4.37118 3.14969 3.98568C3.35219 3.64068 3.64019 3.35568 3.98519 3.15018C4.37519 2.92068 4.86719 2.84568 5.84519 2.69418L7.09019 2.50368C7.43069 2.45268 7.60169 2.42568 7.76369 2.37618C7.90869 2.33118 8.04819 2.27318 8.18219 2.20218C8.33219 2.12268 8.47169 2.02068 8.74919 1.81668L9.76469 1.07118ZM13.3347 2.28018L14.4012 3.06318C14.6277 3.22968 14.8512 3.39468 15.1002 3.52668C15.3202 3.64368 15.5482 3.73818 15.7842 3.81018C16.054 3.88478 16.3286 3.94042 16.6062 3.97668L17.9142 4.17768C19.0257 4.34868 19.1637 4.39518 19.2447 4.44318C19.3717 4.51918 19.4727 4.62018 19.5477 4.74618C19.5957 4.82718 19.6437 4.96518 19.8132 6.07668L20.0142 7.38468C20.0504 7.66223 20.1061 7.9369 20.1807 8.20668C20.2537 8.44468 20.3482 8.67268 20.4642 8.89068C20.5962 9.13968 20.7612 9.36318 20.9277 9.58968L21.7107 10.6562C22.3767 11.5622 22.4397 11.6927 22.4637 11.7857C22.4983 11.9266 22.4983 12.0738 22.4637 12.2147C22.4397 12.3062 22.3767 12.4367 21.7107 13.3442L20.9277 14.4107C20.7612 14.6372 20.5962 14.8607 20.4642 15.1097C20.3482 15.3282 20.2533 15.5572 20.1807 15.7937C20.1061 16.0635 20.0504 16.3381 20.0142 16.6157L19.8132 17.9237C19.6422 19.0352 19.5957 19.1732 19.5477 19.2542C19.4726 19.3781 19.3686 19.482 19.2447 19.5572C19.1637 19.6052 19.0257 19.6532 17.9142 19.8227L16.6062 20.0237C16.3286 20.0599 16.054 20.1156 15.7842 20.1902C15.5477 20.2628 15.3187 20.3577 15.1002 20.4737C14.8512 20.6057 14.6277 20.7707 14.4012 20.9372L13.3347 21.7202C12.4287 22.3862 12.2982 22.4492 12.2052 22.4732C12.0643 22.5078 11.9171 22.5078 11.7762 22.4732C11.6847 22.4492 11.5542 22.3862 10.6467 21.7202L9.58019 20.9372C9.35829 20.7666 9.12472 20.6117 8.88119 20.4737C8.6627 20.3577 8.43367 20.2628 8.19719 20.1902C7.92741 20.1156 7.65274 20.0599 7.37519 20.0237L6.06719 19.8227C4.95569 19.6517 4.81769 19.6052 4.73669 19.5572C4.61277 19.482 4.50882 19.3781 4.43369 19.2542C4.38569 19.1732 4.33769 19.0352 4.16819 17.9237L3.96719 16.6157C3.93093 16.3381 3.8753 16.0635 3.80069 15.7937C3.7281 15.5572 3.63317 15.3282 3.51719 15.1097C3.38519 14.8607 3.22019 14.6372 3.05369 14.4107L2.27069 13.3442C1.60469 12.4382 1.54169 12.3077 1.51769 12.2147C1.48311 12.0738 1.48311 11.9266 1.51769 11.7857C1.54169 11.6942 1.60469 11.5637 2.27069 10.6562L3.05369 9.58968C3.22019 9.36318 3.38519 9.13968 3.51719 8.89068C3.63319 8.67068 3.72769 8.44268 3.80069 8.20668C3.8753 7.9369 3.93093 7.66223 3.96719 7.38468L4.16819 6.07668C4.33919 4.96518 4.38569 4.82718 4.43369 4.74618C4.50882 4.62226 4.61277 4.51831 4.73669 4.44318C4.81769 4.39518 4.95569 4.34718 6.06719 4.17768L7.37519 3.97668C7.65274 3.94042 7.92741 3.88478 8.19719 3.81018C8.43519 3.73718 8.66319 3.64268 8.88119 3.52668C9.13019 3.39468 9.35369 3.22968 9.58019 3.06318L10.6467 2.28018C11.5527 1.61418 11.6832 1.55118 11.7762 1.52718C11.9171 1.4926 12.0643 1.4926 12.2052 1.52718C12.2967 1.55118 12.4272 1.61418 13.3347 2.28018Z" fill="#FAFAF8"/>
</g>
<defs>
<clipPath id="clip0_619_835">
<rect width="24" height="24" fill="white"/>
</clipPath>
</defs>
</svg>
