<svg width="32" height="32" viewBox="0 0 32 32" fill="none" xmlns="http://www.w3.org/2000/svg">
<path d="M2.66 23.1868C4.472 22.1549 6.278 21.3648 8.078 20.8166C9.878 20.2684 11.6853 19.9645 13.5 19.9048C13.5053 20.0596 13.5067 20.2047 13.504 20.3401C13.5013 20.4756 13.5413 20.6094 13.624 20.7416C13.78 20.84 13.916 20.9665 14.032 21.1213C14.148 21.2761 14.1873 21.464 14.15 21.6849C14.1127 21.9057 14.0187 22.0694 13.868 22.1758C13.7173 22.2822 13.5507 22.3306 13.368 22.3209C11.6973 22.3564 10.0407 22.6321 8.398 23.1481C6.75533 23.664 5.16133 24.384 3.616 25.3078C3.10933 25.6336 2.714 26.0318 2.43 26.5026C2.14333 26.975 2 27.4797 2 28.0166V29.5814H15.916C16.2493 29.5814 16.4993 29.7064 16.666 29.9563C16.8327 30.2062 16.916 30.4811 16.916 30.781C16.916 31.0809 16.8327 31.3591 16.666 31.6154C16.4993 31.8718 16.2493 32 15.916 32H2.076C1.48933 32 0.996666 31.7581 0.598 31.2744C0.199333 30.7907 0 30.1941 0 29.4847V28.0142C0 27.0162 0.24 26.0826 0.72 25.2135C1.20133 24.3428 1.848 23.6673 2.66 23.1868ZM14 14.509C12.3507 14.509 10.938 13.7979 9.762 12.3758C8.586 10.9537 7.99867 9.24621 8 7.25332C8.00133 5.26043 8.58867 3.55132 9.762 2.12598C10.9353 0.700643 12.348 -0.00799384 14 6.80135e-05C15.652 0.00812987 17.0647 0.717573 18.238 2.1284C19.4113 3.53922 19.9987 5.24834 20 7.25574C20.0013 9.26314 19.414 10.9706 18.238 12.3782C17.062 13.7858 15.6493 14.4945 14 14.509ZM14 12.0929C15.1 12.0929 16.042 11.6188 16.826 10.6707C17.61 9.72267 18.0013 8.58353 18 7.25332C17.9987 5.92311 17.6073 4.78397 16.826 3.8359C16.0447 2.88783 15.1027 2.41459 14 2.41621C12.8973 2.41782 11.956 2.89105 11.176 3.8359C10.396 4.78075 10.004 5.91989 10 7.25332C9.996 8.58675 10.388 9.72509 11.176 10.6683C11.964 11.6116 12.9053 12.088 14 12.0929ZM25.07 20.108C25.6593 19.3953 26.186 18.8108 26.65 18.3545C27.114 17.8982 27.7547 17.67 28.572 17.67C29.6133 17.67 30.4453 18.0989 31.068 18.9567C31.6907 19.8145 32.0013 20.7916 32 21.888C32 22.4024 31.9193 22.9167 31.758 23.4311C31.5967 23.9438 31.344 24.4081 31 24.8241L26.2 30.6287C25.8773 31.0189 25.5007 31.214 25.07 31.214C24.6393 31.214 24.262 31.0189 23.938 30.6287L19.146 24.8338C18.7647 24.3711 18.5013 23.8898 18.356 23.3899C18.2107 22.8869 18.138 22.3846 18.138 21.8832C18.138 20.7868 18.4607 19.8113 19.106 18.9567C19.7513 18.1022 20.578 17.6733 21.586 17.67C22.386 17.67 23.0153 17.8934 23.474 18.34C23.9327 18.7866 24.4647 19.3759 25.07 20.108Z" fill="#1E3A5F"/>
</svg>
