

<svg width="123" height="98" viewBox="0 0 123 98" fill="none" xmlns="http://www.w3.org/2000/svg">
<path d="M61.5 1.5C94.9729 1.5 121.5 23.0665 121.5 49C121.5 74.9335 94.9729 96.5 61.5 96.5C28.0271 96.5 1.5 74.9335 1.5 49C1.5 23.0665 28.0271 1.5 61.5 1.5Z" stroke="#EEB541" stroke-width="3"/>
<path fill-rule="evenodd" clip-rule="evenodd" d="M52.6876 44.25C53.6324 44.25 54.5386 43.8747 55.2067 43.2066C55.8748 42.5385 56.2501 41.6324 56.2501 40.6875C56.2501 39.7427 55.8748 38.8366 55.2067 38.1685C54.5386 37.5004 53.6324 37.125 52.6876 37.125C51.7428 37.125 50.8366 37.5004 50.1685 38.1685C49.5004 38.8366 49.1251 39.7427 49.1251 40.6875C49.1251 41.6324 49.5004 42.5385 50.1685 43.2066C50.8366 43.8747 51.7428 44.25 52.6876 44.25ZM45.5626 40.6875C45.5622 41.944 45.8941 43.1783 46.5246 44.2651C47.1551 45.3519 48.0618 46.2527 49.1528 46.8761C50.2437 47.4994 51.4801 47.8232 52.7366 47.8146C53.993 47.8059 55.2248 47.4652 56.3071 46.8269L58.4802 49L56.3071 51.1732C54.8133 50.2921 53.0494 49.9862 51.3462 50.3127C49.6429 50.6392 48.1172 51.5757 47.0551 52.9467C45.9929 54.3176 45.4673 56.029 45.5767 57.7598C45.6861 59.4906 46.4231 61.1221 47.6494 62.3484C48.8757 63.5747 50.5072 64.3117 52.238 64.4211C53.9688 64.5305 55.6801 64.0049 57.0511 62.9427C58.4221 61.8806 59.3586 60.3549 59.6851 58.6516C60.0116 56.9484 59.7057 55.1845 58.8246 53.6907L61.2899 51.2325L74.3547 58.8539C74.5568 58.9718 74.7802 59.0487 75.012 59.0803C75.2439 59.1119 75.4796 59.0975 75.7059 59.038C75.9322 58.9784 76.1445 58.8749 76.3308 58.7333C76.517 58.5917 76.6736 58.4148 76.7915 58.2127C76.9094 58.0106 76.9863 57.7872 77.0179 57.5554C77.0495 57.3235 77.0351 57.0878 76.9755 56.8615C76.916 56.6352 76.8125 56.4229 76.6709 56.2366C76.5292 56.0504 76.3523 55.8938 76.1502 55.7759L64.5341 49L76.1479 42.2265C76.35 42.1086 76.5269 41.9521 76.6685 41.7658C76.8101 41.5796 76.9136 41.3672 76.9732 41.141C77.0327 40.9147 77.0471 40.6789 77.0155 40.4471C76.9839 40.2152 76.907 39.9919 76.7891 39.7898C76.6712 39.5877 76.5147 39.4108 76.3284 39.2692C76.1421 39.1276 75.9298 39.024 75.7035 38.9645C75.4773 38.905 75.2415 38.8906 75.0097 38.9221C74.7778 38.9537 74.5545 39.0306 74.3524 39.1485L61.2899 46.7699L58.827 44.307C59.3828 43.3632 59.7136 42.304 59.7936 41.2116C59.8736 40.1192 59.7006 39.023 59.2882 38.0083C58.8757 36.9936 58.2349 36.0876 57.4154 35.3608C56.596 34.634 55.62 34.1059 54.5633 33.8176C53.5066 33.5293 52.3976 33.4884 51.3226 33.6983C50.2475 33.9081 49.2353 34.363 48.3647 35.0276C47.494 35.6921 46.7882 36.5485 46.3023 37.5301C45.8163 38.5118 45.5632 39.5922 45.5626 40.6875ZM52.6876 53.75C53.6324 53.75 54.5386 54.1254 55.2067 54.7935C55.8748 55.4616 56.2501 56.3677 56.2501 57.3125C56.2501 58.2574 55.8748 59.1635 55.2067 59.8316C54.5386 60.4997 53.6324 60.875 52.6876 60.875C51.7428 60.875 50.8366 60.4997 50.1685 59.8316C49.5004 59.1635 49.1251 58.2574 49.1251 57.3125C49.1251 56.3677 49.5004 55.4616 50.1685 54.7935C50.8366 54.1254 51.7428 53.75 52.6876 53.75Z" fill="#1E3A5F"/>
</svg>
