<svg width="123" height="98" viewBox="0 0 123 98" fill="none" xmlns="http://www.w3.org/2000/svg">
<path d="M61.5 1.5C94.9729 1.5 121.5 23.0665 121.5 49C121.5 74.9335 94.9729 96.5 61.5 96.5C28.0271 96.5 1.5 74.9335 1.5 49C1.5 23.0665 28.0271 1.5 61.5 1.5Z" stroke="#EEB541" stroke-width="3"/>
<path d="M60.9993 44.25V53.75M56.2493 49H65.7493M72.8157 36.3239C68.5692 33.7193 64.8627 34.7675 62.6365 36.4395C61.7245 37.125 61.2685 37.4686 60.9993 37.4686C60.7302 37.4686 60.2742 37.125 59.3622 36.4395C57.136 34.7675 53.4294 33.7209 49.1829 36.3239C43.6112 39.7407 42.3508 51.0172 55.2043 60.5315C57.6522 62.3428 58.8761 63.2485 60.9993 63.2485C63.1226 63.2485 64.3465 62.3428 66.7943 60.5315C79.6478 51.0172 78.3875 39.7439 72.8157 36.3239Z" stroke="#1E3A5F" stroke-width="3" stroke-linecap="round"/>
</svg>
