<svg width="123" height="98" viewBox="0 0 123 98" fill="none" xmlns="http://www.w3.org/2000/svg">
<path d="M61.5 1.5C94.9729 1.5 121.5 23.0665 121.5 49C121.5 74.9335 94.9729 96.5 61.5 96.5C28.0271 96.5 1.5 74.9335 1.5 49C1.5 23.0665 28.0271 1.5 61.5 1.5Z" stroke="#EEB541" stroke-width="3"/>
<g clip-path="url(#clip0_623_1916)">
<path d="M48.334 47.4167C50.9573 47.4167 53.084 45.2901 53.084 42.6667C53.084 40.0434 50.9573 37.9167 48.334 37.9167C45.7106 37.9167 43.584 40.0434 43.584 42.6667C43.584 45.2901 45.7106 47.4167 48.334 47.4167Z" stroke="#1E3A5F" stroke-width="3" stroke-linecap="round" stroke-linejoin="round"/>
<path d="M61 41.0834C63.6234 41.0834 65.75 38.9567 65.75 36.3334C65.75 33.71 63.6234 31.5834 61 31.5834C58.3766 31.5834 56.25 33.71 56.25 36.3334C56.25 38.9567 58.3766 41.0834 61 41.0834Z" stroke="#1E3A5F" stroke-width="3" stroke-linecap="round" stroke-linejoin="round"/>
<path d="M73.668 47.4167C76.2913 47.4167 78.418 45.2901 78.418 42.6667C78.418 40.0434 76.2913 37.9167 73.668 37.9167C71.0446 37.9167 68.918 40.0434 68.918 42.6667C68.918 45.2901 71.0446 47.4167 73.668 47.4167Z" stroke="#1E3A5F" stroke-width="3" stroke-linecap="round" stroke-linejoin="round"/>
<path d="M49.9182 55.3334C48.6584 56.3832 47.8672 57.8905 47.7188 59.5236C47.5703 61.1567 48.0767 62.782 49.1265 64.0417C50.1763 65.3015 51.6836 66.0927 53.3167 66.2411C54.9498 66.3896 56.575 65.8832 57.8348 64.8334C59.9459 63.7779 62.057 63.7779 64.1682 64.8334C65.4279 65.8832 67.0532 66.3896 68.6863 66.2411C70.3194 66.0927 71.8267 65.3015 72.8765 64.0417C73.9263 62.782 74.4327 61.1567 74.2842 59.5236C74.1357 57.8905 73.3446 56.3832 72.0848 55.3334L67.3348 50.5834C63.1126 46.3612 58.8904 46.3612 54.6682 50.5834L49.9182 55.3334Z" stroke="#1E3A5F" stroke-width="3" stroke-linecap="round" stroke-linejoin="round"/>
</g>
<defs>
<clipPath id="clip0_623_1916">
<rect width="38" height="38" fill="white" transform="translate(42 30)"/>
</clipPath>
</defs>
</svg>
