<svg width="123" height="98" viewBox="0 0 123 98" fill="none" xmlns="http://www.w3.org/2000/svg">
<path d="M61.5 1.5C94.9729 1.5 121.5 23.0665 121.5 49C121.5 74.9335 94.9729 96.5 61.5 96.5C28.0271 96.5 1.5 74.9335 1.5 49C1.5 23.0665 28.0271 1.5 61.5 1.5Z" stroke="#EEB541" stroke-width="3"/>
<path d="M48.65 68C46.8133 68 45.2458 67.3508 43.9475 66.0525C42.6492 64.7542 42 63.1867 42 61.35C42 59.5133 42.6492 57.9458 43.9475 56.6475C45.2458 55.3492 46.8133 54.7 48.65 54.7C49.22 54.7 49.7742 54.7709 50.3125 54.9128C50.8508 55.0547 51.3575 55.2529 51.8325 55.5075L59.1 48.24V43.015C57.7067 42.6033 56.5667 41.8199 55.68 40.6647C54.7933 39.5095 54.35 38.1713 54.35 36.65C54.35 34.8133 54.9992 33.2458 56.2975 31.9475C57.5958 30.6492 59.1633 30 61 30C62.8367 30 64.4042 30.6492 65.7025 31.9475C67.0008 33.2458 67.65 34.8133 67.65 36.65C67.65 38.17 67.2067 39.5082 66.32 40.6647C65.4333 41.8212 64.2933 42.6046 62.9 43.015V48.24L70.215 55.5075C70.69 55.2542 71.1891 55.0566 71.7122 54.9147C72.2353 54.7728 72.7813 54.7013 73.35 54.7C75.1867 54.7 76.7542 55.3492 78.0525 56.6475C79.3508 57.9458 80 59.5133 80 61.35C80 63.1867 79.3508 64.7542 78.0525 66.0525C76.7542 67.3508 75.1867 68 73.35 68C71.5133 68 69.9458 67.3508 68.6475 66.0525C67.3492 64.7542 66.7 63.1867 66.7 61.35C66.7 60.78 66.7709 60.2258 66.9128 59.6875C67.0547 59.1492 67.2529 58.6425 67.5075 58.1675L61 51.66L54.4925 58.1675C54.7458 58.6425 54.9441 59.1492 55.0872 59.6875C55.2303 60.2258 55.3013 60.78 55.3 61.35C55.3 63.1867 54.6508 64.7542 53.3525 66.0525C52.0542 67.3508 50.4867 68 48.65 68ZM73.35 64.2C74.1417 64.2 74.8149 63.9232 75.3697 63.3697C75.9245 62.8162 76.2013 62.1429 76.2 61.35C76.1987 60.5571 75.922 59.8845 75.3697 59.3322C74.8174 58.7799 74.1442 58.5025 73.35 58.5C72.5558 58.4975 71.8832 58.7749 71.3322 59.3322C70.7812 59.8895 70.5038 60.5621 70.5 61.35C70.4962 62.1379 70.7736 62.8111 71.3322 63.3697C71.8908 63.9283 72.5634 64.2051 73.35 64.2ZM61 39.5C61.7917 39.5 62.4649 39.2232 63.0197 38.6697C63.5745 38.1162 63.8513 37.4429 63.85 36.65C63.8487 35.8571 63.572 35.1845 63.0197 34.6322C62.4674 34.0799 61.7942 33.8025 61 33.8C60.2058 33.7975 59.5332 34.0749 58.9822 34.6322C58.4312 35.1895 58.1538 35.8621 58.15 36.65C58.1462 37.4379 58.4236 38.1111 58.9822 38.6697C59.5408 39.2283 60.2134 39.5051 61 39.5ZM48.65 64.2C49.4417 64.2 50.1149 63.9232 50.6697 63.3697C51.2245 62.8162 51.5013 62.1429 51.5 61.35C51.4987 60.5571 51.222 59.8845 50.6697 59.3322C50.1174 58.7799 49.4442 58.5025 48.65 58.5C47.8558 58.4975 47.1832 58.7749 46.6322 59.3322C46.0812 59.8895 45.8038 60.5621 45.8 61.35C45.7962 62.1379 46.0736 62.8111 46.6322 63.3697C47.1908 63.9283 47.8634 64.2051 48.65 64.2Z" fill="#1E3A5F"/>
</svg>
