<svg width="123" height="98" viewBox="0 0 123 98" fill="none" xmlns="http://www.w3.org/2000/svg">
<path d="M61.5 1.5C94.9729 1.5 121.5 23.0665 121.5 49C121.5 74.9335 94.9729 96.5 61.5 96.5C28.0271 96.5 1.5 74.9335 1.5 49C1.5 23.0665 28.0271 1.5 61.5 1.5Z" stroke="#EEB541" stroke-width="3"/>
<g clip-path="url(#clip0_623_1934)">
<path d="M67.3012 66.2567V52.6835C67.3012 52.2335 67.0799 51.8019 66.6861 51.4838C66.2923 51.1656 65.7581 50.9868 65.2012 50.9868H56.8012C56.2442 50.9868 55.7101 51.1656 55.3162 51.4838C54.9224 51.8019 54.7012 52.2335 54.7012 52.6835V66.2567" stroke="#1E3A5F" stroke-width="3" stroke-linecap="round" stroke-linejoin="round"/>
<path d="M43.9004 46.3767C43.9003 45.8503 44.0207 45.3302 44.2534 44.8526C44.486 44.3751 44.8253 43.9516 45.2475 43.6118L58.5475 32.755C59.2334 32.2029 60.1024 31.9 61.0004 31.9C61.8984 31.9 62.7674 32.2029 63.4533 32.755L76.7533 43.6118C77.1755 43.9516 77.5147 44.3751 77.7474 44.8526C77.9801 45.3302 78.1005 45.8503 78.1004 46.3767V62.662C78.1004 63.6218 77.7 64.5423 76.9874 65.221C76.2748 65.8997 75.3082 66.281 74.3004 66.281H47.7004C46.6926 66.281 45.726 65.8997 45.0134 65.221C44.3007 64.5423 43.9004 63.6218 43.9004 62.662V46.3767Z" stroke="#1E3A5F" stroke-width="3" stroke-linecap="round" stroke-linejoin="round"/>
</g>
<defs>
<clipPath id="clip0_623_1934">
<rect width="38" height="38" fill="white" transform="translate(42 30)"/>
</clipPath>
</defs>
</svg>
