
<svg width="123" height="98" viewBox="0 0 123 98" fill="none" xmlns="http://www.w3.org/2000/svg">
<path d="M61.5 1.5C94.9729 1.5 121.5 23.0665 121.5 49C121.5 74.9335 94.9729 96.5 61.5 96.5C28.0271 96.5 1.5 74.9335 1.5 49C1.5 23.0665 28.0271 1.5 61.5 1.5Z" stroke="#EEB541" stroke-width="3"/>
<g clip-path="url(#clip0_623_1941)">
<path d="M58.34 51.375L61 46.15L63.6389 51.375L69.4444 53.75L63.6389 56.144L61 61.35L58.34 56.144L52.5556 53.75L58.34 51.375ZM69.4444 33.8V30H73.6667V33.8H75.7778C76.8967 33.8 77.9733 34.199 78.7544 34.921C79.5567 35.624 80 36.593 80 37.6V64.2C80 65.207 79.5567 66.176 78.7544 66.879C77.9733 67.601 76.8967 68 75.7778 68H46.2222C45.1033 68 44.0267 67.601 43.2456 66.879C42.4433 66.176 42 65.207 42 64.2V37.6C42 36.593 42.4433 35.624 43.2456 34.921C44.0267 34.199 45.1033 33.8 46.2222 33.8H48.3333V30H52.5556V33.8H69.4444ZM46.2222 40.5V64.2H75.7778V40.5H46.2222Z" fill="#1E3A5F"/>
</g>
<defs>
<clipPath id="clip0_623_1941">
<rect width="38" height="38" fill="white" transform="translate(42 30)"/>
</clipPath>
</defs>
</svg>
