<svg width="24" height="24" viewBox="0 0 24 24" fill="none" xmlns="http://www.w3.org/2000/svg">
<path d="M15.6132 4.18979C16.0776 3.7541 16.4316 3.24802 16.655 2.70062C16.8785 2.15323 16.9669 1.57529 16.9152 1C15.4897 1.09368 14.1664 1.63951 13.2305 2.5199C12.7823 2.94185 12.4427 3.43272 12.2317 3.96345C12.0208 4.49418 11.9427 5.05397 12.0023 5.60969C12.6976 5.61441 13.385 5.4888 14.0112 5.24258C14.6373 4.99636 15.1855 4.63613 15.6132 4.18979ZM18.7084 11.6293C18.7166 10.8631 18.9645 10.1112 19.4287 9.44464C19.8929 8.77807 20.558 8.21878 21.3613 7.81955C20.8543 7.22482 20.1841 6.73445 19.4038 6.38732C18.6235 6.04018 17.7546 5.84583 16.866 5.81968C14.95 5.65969 13.1814 6.72962 12.1619 6.72962C11.1425 6.72962 9.7055 5.83968 8.10882 5.85968C7.06499 5.88767 6.04789 6.13544 5.15672 6.57882C4.26556 7.02219 3.53075 7.64604 3.02398 8.38951C0.862311 11.4493 2.47128 15.999 4.63295 18.4688C5.61553 19.6788 6.84375 21.0487 8.465 20.9987C10.0863 20.9487 10.6144 20.1787 12.4936 20.1787C14.3727 20.1787 14.95 20.9987 16.5467 20.9687C18.1434 20.9387 19.2733 19.7288 20.3051 18.5188C21.0359 17.6404 21.6068 16.6805 22 15.669C21.0266 15.3311 20.1961 14.7684 19.6112 14.0504C19.0262 13.3325 18.7123 12.4908 18.7084 11.6293Z" fill="#1F2933"/>
</svg>
