<svg width="24" height="24" viewBox="0 0 24 24" fill="none" xmlns="http://www.w3.org/2000/svg">
<path fill-rule="evenodd" clip-rule="evenodd" d="M7.33333 3.55169H9.66667V20.4483H7.33333C6.71449 20.4483 6.121 20.194 5.68342 19.7413C5.24583 19.2886 5 18.6747 5 18.0345V5.96549C5 5.32531 5.24583 4.71135 5.68342 4.25868C6.121 3.806 6.71449 3.55169 7.33333 3.55169ZM12.819 1.15358L17.4857 2.96393C17.9305 3.13644 18.3139 3.44531 18.5845 3.84926C18.8551 4.25321 19.0001 4.73299 19 5.22446V18.7755C19.0001 19.267 18.8551 19.7468 18.5845 20.1507C18.3139 20.5547 17.9305 20.8636 17.4857 21.0361L12.819 22.8464C12.466 22.9833 12.0861 23.0297 11.712 22.9815C11.3378 22.9334 10.9806 22.7922 10.6707 22.57C10.3608 22.3478 10.1076 22.0512 9.93279 21.7057C9.75793 21.3601 9.66662 20.9759 9.66667 20.5859V3.4141C9.66662 3.02408 9.75793 2.63985 9.93279 2.29431C10.1076 1.94877 10.3608 1.65221 10.6707 1.43001C10.9806 1.20782 11.3378 1.0666 11.712 1.01846C12.0861 0.970317 12.466 1.01668 12.819 1.15358Z" stroke="#1E3A5F" stroke-linecap="round" stroke-linejoin="round"/>
<path d="M11.999 11.3569C12.354 11.3569 12.6424 11.6446 12.6426 11.9995C12.6426 12.3546 12.3541 12.6431 11.999 12.6431C11.6441 12.6429 11.3564 12.3545 11.3564 11.9995C11.3566 11.6447 11.6442 11.3571 11.999 11.3569Z" fill="black" stroke="#1E3A5F"/>
</svg>
