<svg width="24" height="24" viewBox="0 0 24 24" fill="none" xmlns="http://www.w3.org/2000/svg">
<g clip-path="url(#clip0_619_885)">
<path d="M12 8.3342V15.6677M8.99999 12.001H15M19.463 2.21561C16.781 0.205003 14.44 1.01413 13.034 2.30483C12.458 2.83407 12.17 3.0993 12 3.0993C11.83 3.0993 11.542 2.83407 10.966 2.30483C9.55999 1.01413 7.21899 0.206225 4.53699 2.21561C1.01798 4.85323 0.221978 13.5581 8.33999 20.9026C9.886 22.3009 10.659 23 12 23C13.341 23 14.114 22.3009 15.66 20.9026C23.778 13.5581 22.982 4.85567 19.463 2.21561Z" stroke="#1E3A5F" stroke-width="1.5" stroke-linecap="round"/>
</g>
<defs>
<clipPath id="clip0_619_885">
<rect width="24" height="24" fill="white"/>
</clipPath>
</defs>
</svg>
