<svg width="24" height="24" viewBox="0 0 24 24" fill="none" xmlns="http://www.w3.org/2000/svg">
<g clip-path="url(#clip0_619_707)">
<path d="M6.49927 3.75C5.91399 3.74983 5.33919 3.90529 4.83379 4.20042C4.3284 4.49556 3.91059 4.91977 3.62319 5.42956C3.33579 5.93935 3.18915 6.51639 3.19829 7.10152C3.20742 7.68665 3.37202 8.25883 3.67519 8.7594C2.92218 8.90488 2.24332 9.30794 1.75516 9.89937C1.267 10.4908 1 11.2337 1 12.0005C1 12.7674 1.267 13.5103 1.75516 14.1017C2.24332 14.6932 2.92218 15.0962 3.67519 15.2417M6.49927 3.75C6.49927 3.02065 6.78904 2.32118 7.30483 1.80546C7.82062 1.28973 8.52019 1 9.24963 1C9.97908 1 10.6786 1.28973 11.1944 1.80546C11.7102 2.32118 12 3.02065 12 3.75M6.49927 3.75C6.49927 4.6498 6.93162 5.4484 7.59941 5.95M3.67519 15.2417C3.3723 15.7422 3.20793 16.3143 3.19894 16.8993C3.18995 17.4842 3.33665 18.0611 3.62401 18.5707C3.91137 19.0803 4.32907 19.5044 4.83431 19.7995C5.33954 20.0946 5.91415 20.25 6.49927 20.25C6.49927 20.9793 6.78904 21.6788 7.30483 22.1945C7.82062 22.7103 8.52019 23 9.24963 23C9.97908 23 10.6786 22.7103 11.1944 22.1945C11.7102 21.6788 12 20.9793 12 20.25M3.67519 15.2417C4.07001 14.5882 4.67926 14.0917 5.39912 13.837M12 3.75V20.25M12 3.75C12 3.02065 12.2898 2.32118 12.8056 1.80546C13.3214 1.28973 14.0209 1 14.7504 1C15.4798 1 16.1794 1.28973 16.6952 1.80546C17.211 2.32118 17.5007 3.02065 17.5007 3.75C18.0858 3.74995 18.6605 3.90543 19.1657 4.20051C19.6709 4.4956 20.0886 4.91967 20.376 5.42929C20.6634 5.93891 20.8101 6.51575 20.8011 7.10072C20.7921 7.68569 20.6277 8.25775 20.3248 8.7583M12 20.25C12 20.9793 12.2898 21.6788 12.8056 22.1945C13.3214 22.7103 14.0209 23 14.7504 23C15.4798 23 16.1794 22.7103 16.6952 22.1945C17.211 21.6788 17.5007 20.9793 17.5007 20.25M17.5007 20.25C18.086 20.2502 18.6608 20.0947 19.1662 19.7996C19.6716 19.5044 20.0894 19.0802 20.3768 18.5704C20.6642 18.0606 20.8108 17.4836 20.8017 16.8985C20.7926 16.3133 20.628 15.7412 20.3248 15.2406C21.0778 15.0951 21.7567 14.6921 22.2448 14.1006C22.733 13.5092 23 12.7663 23 11.9995C23 11.2326 22.733 10.4897 22.2448 9.89827C21.7567 9.30684 21.0778 8.90378 20.3248 8.7583M17.5007 20.25C17.5007 19.3502 17.0684 18.5516 16.4006 18.05M20.3248 8.7583C19.93 9.41184 19.3207 9.90827 18.6009 10.163" stroke="#1E3A5F" stroke-width="1.5" stroke-linecap="round" stroke-linejoin="round"/>
</g>
<defs>
<clipPath id="clip0_619_707">
<rect width="24" height="24" fill="white"/>
</clipPath>
</defs>
</svg>
