<svg width="24" height="24" viewBox="0 0 24 24" fill="none" xmlns="http://www.w3.org/2000/svg">
<g clip-path="url(#clip0_619_672)">
<path d="M15.9794 22.8988V14.3262C15.9794 14.042 15.8396 13.7695 15.5909 13.5685C15.3422 13.3675 15.0048 13.2546 14.6531 13.2546H9.3478C8.99604 13.2546 8.65869 13.3675 8.40995 13.5685C8.16122 13.7695 8.02148 14.042 8.02148 14.3262V22.8988" stroke="#1E3A5F" stroke-width="1.5" stroke-linecap="round" stroke-linejoin="round"/>
<path d="M1.2002 10.3431C1.20011 10.0106 1.2762 9.68214 1.42314 9.38054C1.57009 9.07894 1.78435 8.8115 2.051 8.59688L10.451 1.73991C10.8842 1.39125 11.433 1.19995 12.0002 1.19995C12.5674 1.19995 13.1162 1.39125 13.5494 1.73991L21.9494 8.59688C22.216 8.8115 22.4303 9.07894 22.5773 9.38054C22.7242 9.68214 22.8003 10.0106 22.8002 10.3431V20.6286C22.8002 21.2348 22.5473 21.8161 22.0973 22.2448C21.6472 22.6734 21.0367 22.9142 20.4002 22.9142H3.6002C2.96368 22.9142 2.35323 22.6734 1.90314 22.2448C1.45305 21.8161 1.2002 21.2348 1.2002 20.6286V10.3431Z" stroke="#1E3A5F" stroke-width="1.5" stroke-linecap="round" stroke-linejoin="round"/>
</g>
<defs>
<clipPath id="clip0_619_672">
<rect width="24" height="24" fill="white"/>
</clipPath>
</defs>
</svg>
