<svg width="24" height="24" viewBox="0 0 24 24" fill="none" xmlns="http://www.w3.org/2000/svg">
<path d="M12 3.81C11.4672 3.81 10.9562 4.01545 10.5795 4.38114C10.2027 4.74684 9.99107 5.24283 9.99107 5.76C9.99107 6.27717 10.2027 6.77316 10.5795 7.13886C10.9562 7.50455 11.4672 7.71 12 7.71C12.5328 7.71 13.0438 7.50455 13.4205 7.13886C13.7973 6.77316 14.0089 6.27717 14.0089 5.76C14.0089 5.24283 13.7973 4.74684 13.4205 4.38114C13.0438 4.01545 12.5328 3.81 12 3.81ZM8.38393 5.76C8.38393 4.82909 8.76491 3.93631 9.44305 3.27806C10.1212 2.6198 11.041 2.25 12 2.25C12.959 2.25 13.8788 2.6198 14.5569 3.27806C15.2351 3.93631 15.6161 4.82909 15.6161 5.76C15.6161 6.69091 15.2351 7.58369 14.5569 8.24194C13.8788 8.9002 12.959 9.27 12 9.27C11.041 9.27 10.1212 8.9002 9.44305 8.24194C8.76491 7.58369 8.38393 6.69091 8.38393 5.76ZM3.96429 6.15C3.53804 6.15 3.12926 6.31436 2.82786 6.60691C2.52647 6.89947 2.35714 7.29626 2.35714 7.71C2.35714 8.12374 2.52647 8.52053 2.82786 8.81309C3.12926 9.10564 3.53804 9.27 3.96429 9.27C4.39053 9.27 4.79931 9.10564 5.10071 8.81309C5.4021 8.52053 5.57143 8.12374 5.57143 7.71C5.57143 7.29626 5.4021 6.89947 5.10071 6.60691C4.79931 6.31436 4.39053 6.15 3.96429 6.15ZM0.75 7.71C0.75 6.88252 1.08865 6.08894 1.69144 5.50383C2.29424 4.91871 3.1118 4.59 3.96429 4.59C4.81677 4.59 5.63433 4.91871 6.23713 5.50383C6.83992 6.08894 7.17857 6.88252 7.17857 7.71C7.17857 8.53748 6.83992 9.33106 6.23713 9.91617C5.63433 10.5013 4.81677 10.83 3.96429 10.83C3.1118 10.83 2.29424 10.5013 1.69144 9.91617C1.08865 9.33106 0.75 8.53748 0.75 7.71ZM18.4286 7.71C18.4286 7.29626 18.5979 6.89947 18.8993 6.60691C19.2007 6.31436 19.6095 6.15 20.0357 6.15C20.462 6.15 20.8707 6.31436 21.1721 6.60691C21.4735 6.89947 21.6429 7.29626 21.6429 7.71C21.6429 8.12374 21.4735 8.52053 21.1721 8.81309C20.8707 9.10564 20.462 9.27 20.0357 9.27C19.6095 9.27 19.2007 9.10564 18.8993 8.81309C18.5979 8.52053 18.4286 8.12374 18.4286 7.71ZM20.0357 4.59C19.1832 4.59 18.3657 4.91871 17.7629 5.50383C17.1601 6.08894 16.8214 6.88252 16.8214 7.71C16.8214 8.53748 17.1601 9.33106 17.7629 9.91617C18.3657 10.5013 19.1832 10.83 20.0357 10.83C20.8882 10.83 21.7058 10.5013 22.3086 9.91617C22.9114 9.33106 23.25 8.53748 23.25 7.71C23.25 6.88252 22.9114 6.08894 22.3086 5.50383C21.7058 4.91871 20.8882 4.59 20.0357 4.59ZM5.97321 12.78C5.97321 12.6063 5.98741 12.4371 6.0158 12.2722L2.23902 13.2542C1.72446 13.3882 1.2858 13.7151 1.01952 14.163C0.753244 14.6109 0.681153 15.1431 0.819107 15.6426L1.54714 18.279C1.72288 18.916 2.03531 19.5097 2.46397 20.0213C2.89262 20.5329 3.42783 20.9508 4.03449 21.2476C4.64116 21.5444 5.3056 21.7134 5.98425 21.7435C6.66291 21.7737 7.34046 21.6642 7.9725 21.4224C7.53811 21.0439 7.16267 20.6062 6.85795 20.1229C6.05435 20.2849 5.21736 20.1424 4.51856 19.7246C3.81976 19.3067 3.3121 18.6452 3.09964 17.8757L2.37161 15.2393C2.35787 15.1899 2.35431 15.1382 2.36113 15.0874C2.36795 15.0366 2.38502 14.9876 2.41136 14.9432C2.43771 14.8988 2.47281 14.8599 2.51466 14.8286C2.55651 14.7974 2.60429 14.7745 2.65527 14.7612L5.97321 13.8985V12.78ZM16.5458 21.5885C16.3697 21.543 16.1964 21.4878 16.0267 21.4232C16.4614 21.0448 16.8371 20.607 17.1421 20.1237C17.9455 20.2852 18.7822 20.1424 19.4807 19.7244C20.1791 19.3065 20.6865 18.6451 20.8987 17.8757L21.626 15.2386C21.6535 15.1387 21.6391 15.0324 21.5859 14.9429C21.5327 14.8534 21.4451 14.7881 21.3423 14.7612L18.0268 13.8985V12.78C18.0268 12.6074 18.0126 12.4384 17.9842 12.273L21.7586 13.2542C22.2731 13.3882 22.7118 13.7151 22.9781 14.163C23.2443 14.6109 23.3164 15.1431 23.1785 15.6426L22.4504 18.279C22.1195 19.4779 21.3116 20.5001 20.2042 21.1207C19.0969 21.7414 17.7809 21.9097 16.5458 21.5885ZM9.1875 10.83C8.6547 10.83 8.14372 11.0354 7.76697 11.4011C7.39023 11.7668 7.17857 12.2628 7.17857 12.78V17.07C7.17857 18.3112 7.68654 19.5016 8.59074 20.3793C9.49493 21.2569 10.7213 21.75 12 21.75C13.2787 21.75 14.5051 21.2569 15.4093 20.3793C16.3135 19.5016 16.8214 18.3112 16.8214 17.07V12.78C16.8214 12.2628 16.6098 11.7668 16.233 11.4011C15.8563 11.0354 15.3453 10.83 14.8125 10.83H9.1875ZM8.78571 12.78C8.78571 12.6766 8.82804 12.5774 8.90339 12.5042C8.97874 12.4311 9.08094 12.39 9.1875 12.39H14.8125C14.9191 12.39 15.0213 12.4311 15.0966 12.5042C15.172 12.5774 15.2143 12.6766 15.2143 12.78V17.07C15.2143 17.8975 14.8756 18.6911 14.2728 19.2762C13.67 19.8613 12.8525 20.19 12 20.19C11.1475 20.19 10.33 19.8613 9.72716 19.2762C9.12436 18.6911 8.78571 17.8975 8.78571 17.07V12.78Z" fill="#1E3A5F"/>
</svg>
