<svg width="45" height="40" viewBox="0 0 45 40" fill="none" xmlns="http://www.w3.org/2000/svg">
<g clip-path="url(#clip0_37_258)">
<path d="M33.188 15.3C33.3508 15.1235 33.4721 14.9198 33.5448 14.7009C33.6175 14.482 33.6401 14.2524 33.6112 14.0256C33.5824 13.7989 33.5027 13.5795 33.3769 13.3806C33.2511 13.1817 33.0816 13.0072 32.8787 12.8675C32.4658 12.5803 31.9431 12.4479 31.4219 12.4983C30.9008 12.5487 30.4224 12.7781 30.0887 13.1375L20.7793 23.2875L15.8012 19.8875C15.3945 19.5933 14.8747 19.4519 14.3525 19.4935C13.8302 19.535 13.3469 19.7562 13.0055 20.11C12.8387 20.2834 12.7128 20.4849 12.6351 20.7024C12.5573 20.9199 12.5295 21.149 12.5531 21.3762C12.5767 21.6035 12.6513 21.8242 12.7724 22.0253C12.8936 22.2265 13.059 22.404 13.2587 22.5475L19.7837 27.0725C20.1957 27.3704 20.7236 27.5113 21.2521 27.4645C21.7806 27.4176 22.2668 27.1868 22.6046 26.8225L33.1796 15.2725L33.188 15.3Z" fill="#1E3A5F"/>
<path fill-rule="evenodd" clip-rule="evenodd" d="M18.3089 1.78505C19.8108 0.805055 20.5617 0.315055 21.3745 0.125055C22.1008 -0.0387552 22.8617 -0.0387552 23.588 0.125055C24.4092 0.315055 25.163 0.805055 26.6536 1.78505L28.5577 3.02755C29.078 3.36755 29.3395 3.53755 29.6208 3.67005C29.872 3.78672 30.1336 3.88339 30.4055 3.96005C30.712 4.04255 31.0299 4.08505 31.6683 4.17255L34.0027 4.49005C35.8449 4.74005 36.7645 4.86755 37.4902 5.25005C38.137 5.58755 38.677 6.06755 39.0567 6.64255C39.487 7.29255 39.6277 8.11256 39.9117 9.74256L40.2689 11.8176C40.3674 12.3851 40.4152 12.6701 40.508 12.9426C40.5924 13.1842 40.7011 13.4159 40.8342 13.6376C40.9861 13.8876 41.1745 14.1201 41.557 14.5826L42.9549 16.2751C44.0574 17.6101 44.6086 18.2776 44.8224 19.0001C45.0066 19.6457 45.0066 20.322 44.8224 20.9676C44.6114 21.6976 44.0574 22.3676 42.9549 23.6926L41.557 25.3851C41.2894 25.6833 41.0478 25.9992 40.8342 26.3301C40.7008 26.5537 40.5916 26.7881 40.508 27.0301C40.4152 27.3001 40.3674 27.5826 40.2689 28.1501L39.9117 30.2251C39.6305 31.8626 39.487 32.6801 39.0567 33.3251C38.677 33.9001 38.137 34.3801 37.4902 34.7176C36.7589 35.1001 35.8364 35.2251 34.0027 35.4776L31.6683 35.7951C31.2418 35.8381 30.8197 35.9099 30.4055 36.0101C30.1336 36.0834 29.872 36.1801 29.6208 36.3001C29.3395 36.4326 29.078 36.6001 28.5577 36.9426L26.6536 38.1851C25.1517 39.1651 24.4008 39.6551 23.588 39.8451C22.8617 40.0089 22.1008 40.0089 21.3745 39.8451C20.5533 39.6551 19.7995 39.1651 18.3089 38.1851L16.4049 36.9426C16.0694 36.7047 15.714 36.4899 15.3417 36.3001C15.091 36.1816 14.8283 36.0845 14.557 36.0101C14.1429 35.9099 13.7207 35.8381 13.2942 35.7951L10.9599 35.4776C9.11767 35.2276 8.19517 35.1026 7.47236 34.7176C6.82778 34.3767 6.28927 33.898 5.90579 33.3251C5.47548 32.6751 5.33486 31.8551 5.05079 30.2251L4.69361 28.1501C4.59517 27.5826 4.54735 27.3001 4.45454 27.0276C4.37248 26.7859 4.26318 26.5522 4.12829 26.3301C3.91474 25.9992 3.6731 25.6833 3.40548 25.3851L2.00767 23.6926C0.905168 22.3576 0.353918 21.6926 0.140168 20.9676C-0.0441183 20.322 -0.0441183 19.6457 0.140168 19.0001C0.351105 18.2701 0.905168 17.6001 2.00767 16.2751L3.40548 14.5826C3.78798 14.1201 3.97923 13.8876 4.12829 13.6376C4.25954 13.4159 4.36829 13.1834 4.45454 12.9401C4.54735 12.6676 4.59517 12.3851 4.69361 11.8176L5.05079 9.74256C5.33204 8.10506 5.47548 7.28505 5.90579 6.64255C6.28548 6.06755 6.82548 5.59255 7.47236 5.25005C8.20361 4.86755 9.12611 4.74255 10.9599 4.49005L13.2942 4.17255C13.9327 4.08755 14.2533 4.04255 14.557 3.96005C14.8289 3.88505 15.0905 3.78839 15.3417 3.67005C15.623 3.53755 15.8845 3.36755 16.4049 3.02755L18.3089 1.78505ZM25.0027 3.80005L27.0024 5.10505C27.427 5.38255 27.8461 5.65756 28.313 5.87756C28.7255 6.07256 29.153 6.23005 29.5955 6.35005C30.1013 6.4744 30.6163 6.56712 31.1367 6.62755L33.5892 6.96255C35.6733 7.24755 35.932 7.32505 36.0839 7.40505C36.322 7.53172 36.5114 7.70005 36.652 7.91005C36.742 8.04505 36.832 8.27506 37.1499 10.1276L37.5267 12.3076C37.5947 12.7701 37.699 13.2279 37.8389 13.6776C37.9758 14.0742 38.153 14.4542 38.3705 14.8176C38.618 15.2326 38.9274 15.6051 39.2395 15.9826L40.7077 17.7601C41.9564 19.2701 42.0745 19.4876 42.1195 19.6426C42.1844 19.8774 42.1844 20.1227 42.1195 20.3576C42.0745 20.5101 41.9564 20.7276 40.7077 22.2401L39.2395 24.0176C38.9274 24.3951 38.618 24.7676 38.3705 25.1826C38.153 25.5467 37.975 25.9284 37.8389 26.3226C37.699 26.7722 37.5947 27.23 37.5267 27.6926L37.1499 29.8726C36.8292 31.7251 36.742 31.9551 36.652 32.0901C36.5112 32.2966 36.3163 32.4698 36.0839 32.5951C35.932 32.6751 35.6733 32.7551 33.5892 33.0376L31.1367 33.3726C30.6163 33.433 30.1013 33.5257 29.5955 33.6501C29.1521 33.771 28.7227 33.9293 28.313 34.1226C27.8461 34.3426 27.427 34.6176 27.0024 34.8951L25.0027 36.2001C23.3039 37.3101 23.0592 37.4151 22.8849 37.4551C22.6207 37.5127 22.3447 37.5127 22.0805 37.4551C21.9089 37.4151 21.6642 37.3101 19.9627 36.2001L17.963 34.8951C17.5469 34.6107 17.109 34.3526 16.6524 34.1226C16.2427 33.9293 15.8132 33.771 15.3699 33.6501C14.864 33.5257 14.349 33.433 13.8286 33.3726L11.3761 33.0376C9.29204 32.7526 9.03329 32.6751 8.88142 32.5951C8.64906 32.4698 8.45417 32.2966 8.31329 32.0901C8.22329 31.9551 8.13329 31.7251 7.81548 29.8726L7.43861 27.6926C7.37062 27.23 7.2663 26.7722 7.12642 26.3226C6.9903 25.9284 6.81231 25.5467 6.59486 25.1826C6.34736 24.7676 6.03798 24.3951 5.72579 24.0176L4.25767 22.2401C3.00892 20.7301 2.89079 20.5126 2.84579 20.3576C2.78096 20.1227 2.78096 19.8774 2.84579 19.6426C2.89079 19.4901 3.00892 19.2726 4.25767 17.7601L5.72579 15.9826C6.03798 15.6051 6.34736 15.2326 6.59486 14.8176C6.81236 14.4509 6.98954 14.0709 7.12642 13.6776C7.2663 13.2279 7.37062 12.7701 7.43861 12.3076L7.81548 10.1276C8.1361 8.27506 8.22329 8.04505 8.31329 7.91005C8.45417 7.70352 8.64906 7.53027 8.88142 7.40505C9.03329 7.32505 9.29204 7.24505 11.3761 6.96255L13.8286 6.62755C14.349 6.56712 14.864 6.4744 15.3699 6.35005C15.8161 6.22839 16.2436 6.07089 16.6524 5.87756C17.1192 5.65756 17.5383 5.38255 17.963 5.10505L19.9627 3.80005C21.6614 2.69005 21.9061 2.58505 22.0805 2.54505C22.3447 2.48742 22.6207 2.48742 22.8849 2.54505C23.0564 2.58505 23.3011 2.69005 25.0027 3.80005Z" fill="#1E3A5F"/>
</g>
<defs>
<clipPath id="clip0_37_258">
<rect width="45" height="40" fill="white"/>
</clipPath>
</defs>
</svg>
