<svg width="40" height="38" viewBox="0 0 40 38" fill="none" xmlns="http://www.w3.org/2000/svg">
<path d="M21.8418 3V14.4285C21.8418 15.0347 22.0414 15.6161 22.3968 16.0448C22.7521 16.4734 23.2341 16.7142 23.7366 16.7142H35.2988C35.5499 16.7143 35.7985 16.7745 36.0301 16.8914C36.2617 17.0084 36.4717 17.1797 36.6479 17.3954L38.3495 19.4753C38.6991 19.903 38.8951 20.4793 38.8952 21.0799V28.1427C38.8952 28.7489 38.6956 29.3303 38.3402 29.759C37.9849 30.1876 37.5029 30.4284 37.0004 30.4284H31.3159" stroke="#1E3A5F" stroke-width="2" stroke-linecap="round" stroke-linejoin="round"/>
<path d="M6.68447 30.4284H2.89482C2.39228 30.4284 1.91033 30.1876 1.55498 29.759C1.19963 29.3303 1 28.7489 1 28.1427V7.57141C1 6.35899 1.39926 5.19624 2.10996 4.33893C2.82066 3.48163 3.78457 3 4.78964 3H27.5275C29.6118 3 31.5066 4.82856 32.0751 7.11427L34.3034 16.7142M14.2638 30.4284H23.7379" stroke="#1E3A5F" stroke-width="2" stroke-linecap="round" stroke-linejoin="round"/>
<path d="M27.526 35C29.6189 35 31.3156 32.9533 31.3156 30.4286C31.3156 27.9039 29.6189 25.8572 27.526 25.8572C25.433 25.8572 23.7363 27.9039 23.7363 30.4286C23.7363 32.9533 25.433 35 27.526 35Z" stroke="#1E3A5F" stroke-width="2" stroke-linecap="round" stroke-linejoin="round"/>
<path d="M10.4752 35C12.5682 35 14.2648 32.9533 14.2648 30.4286C14.2648 27.9039 12.5682 25.8572 10.4752 25.8572C8.38223 25.8572 6.68555 27.9039 6.68555 30.4286C6.68555 32.9533 8.38223 35 10.4752 35Z" stroke="#1E3A5F" stroke-width="2" stroke-linecap="round" stroke-linejoin="round"/>
</svg>
