<svg width="80" height="80" viewBox="0 0 80 80" fill="none" xmlns="http://www.w3.org/2000/svg">
<g clip-path="url(#clip0_619_178)">
<path d="M40 12.6772L37.9907 14.8999C38.251 15.2102 38.5631 15.457 38.9084 15.6256C39.2536 15.7941 39.6249 15.881 40 15.881C40.3751 15.881 40.7464 15.7941 41.0916 15.6256C41.4369 15.457 41.749 15.2102 42.0093 14.8999L40 12.6772ZM30.4223 67.4844C24.7814 62.3764 18.6158 57.3881 13.7228 51.0619C8.93023 44.8554 5.5814 37.6187 5.5814 28.2234H0C0 39.6192 4.13023 48.3134 9.55163 55.3193C14.8726 62.2011 21.6595 67.7152 26.9656 72.5197L30.4223 67.4844ZM5.5814 28.2234C5.5814 19.0334 10.1023 11.3222 16.2753 8.0779C22.2735 4.92763 30.333 5.76115 37.9907 14.8999L42.0093 10.4588C32.9302 -0.385529 22.3777 -2.17653 13.9535 2.24754C5.71535 6.57757 0 16.6311 0 28.2234H5.5814ZM26.9656 72.5197C28.8744 74.2466 30.9209 76.0846 32.9935 77.4781C35.066 78.8715 37.4326 80 40 80V73.5883C38.8465 73.5883 37.4921 73.0754 35.8102 71.9426C34.1247 70.8142 32.3795 69.2583 30.4223 67.4844L26.9656 72.5197ZM53.0344 72.5197C58.3405 67.7109 65.1274 62.2054 70.4484 55.3193C75.8698 48.3091 80 39.6192 80 28.2234H74.4186C74.4186 37.6187 71.0698 44.8554 66.2772 51.0619C61.3842 57.3881 55.2186 62.3764 49.5777 67.4844L53.0344 72.5197ZM80 28.2234C80 16.6311 74.2884 6.57757 66.0465 2.24754C57.6223 -2.17653 47.0772 -0.385529 37.9907 10.4545L42.0093 14.8999C49.667 5.76542 57.7265 4.92763 63.7247 8.0779C69.8977 11.3222 74.4186 19.0291 74.4186 28.2234H80ZM49.5777 67.4844C47.6205 69.2583 45.8754 70.8142 44.1898 71.9426C42.5042 73.0711 41.1535 73.5883 40 73.5883V80C42.5674 80 44.934 78.8673 47.0065 77.4781C49.0828 76.0846 51.1256 74.2466 53.0344 72.5197L49.5777 67.4844Z" fill="#1E3A5F"/>
<path d="M40 35.8158C33.9676 35.8158 28.8705 40.9101 27.2248 47.4533C26.501 50.3307 27.5924 53.3849 30.2714 54.8199C32.3952 55.9574 35.5543 57 40 57C44.4457 57 47.6057 55.9574 49.7295 54.8199C52.4086 53.3849 53.499 50.3307 52.7752 47.4533C51.1295 40.9092 46.0324 35.8158 40 35.8158ZM20 34.3826C20 36.9266 21.7048 39.5 23.8095 39.5C25.9143 39.5 27.619 36.9266 27.619 34.3826C27.619 31.8387 25.9143 30.2895 23.8095 30.2895C21.7048 30.2895 20 31.8396 20 34.3826ZM60 34.3826C60 36.9266 58.2952 39.5 56.1905 39.5C54.0857 39.5 52.381 36.9266 52.381 34.3826C52.381 31.8387 54.0857 30.2895 56.1905 30.2895C58.2952 30.2895 60 31.8396 60 34.3826ZM30 26.0932C30 28.6371 31.7048 31.2105 33.8095 31.2105C35.9143 31.2105 37.619 28.6371 37.619 26.0932C37.619 23.5492 35.9143 22 33.8095 22C31.7048 22 30 23.5501 30 26.0932ZM50 26.0932C50 28.6371 48.2952 31.2105 46.1905 31.2105C44.0857 31.2105 42.381 28.6371 42.381 26.0932C42.381 23.5492 44.0857 22 46.1905 22C48.2952 22 50 23.5501 50 26.0932Z" stroke="#EEB541" stroke-width="3" stroke-linecap="round" stroke-linejoin="round"/>
</g>
<defs>
<clipPath id="clip0_619_178">
<rect width="80" height="80" fill="white"/>
</clipPath>
</defs>
</svg>
