<svg width="80" height="80" viewBox="0 0 80 80" fill="none" xmlns="http://www.w3.org/2000/svg">
<g clip-path="url(#clip0_619_28)">
<path d="M73.9435 33.3556V68.5797M71.9441 38.7683C72.5612 38.3047 73.0849 37.5429 73.4503 36.5774C73.8157 35.6119 74.0068 34.485 73.9998 33.3364C73.9928 32.1878 73.7882 31.0679 73.4111 30.1154C73.034 29.163 72.5012 28.4198 71.8786 27.978L42.3311 5.05882C41.4328 4.36108 40.457 4 39.4697 4C38.4824 4 37.5067 4.36108 36.6084 5.05882L7.06437 27.9545C6.45062 28.4123 5.92851 29.1647 5.56188 30.1197C5.19525 31.0748 5 32.1911 5 33.3321C5 34.4731 5.19525 35.5894 5.56188 36.5444C5.92851 37.4995 6.45062 38.2519 7.06437 38.7096L36.6084 61.6523C37.5067 62.35 38.4824 62.7111 39.4697 62.7111C40.457 62.7111 41.4328 62.35 42.3311 61.6523L71.9441 38.7683Z" stroke="#1E3A5F" stroke-width="5" stroke-linecap="round" stroke-linejoin="round"/>
<path d="M19 48V64.1538C19 67.8261 21.1598 71.3479 25.0043 73.9446C28.8488 76.5412 34.0631 78 39.5 78C44.9369 78 50.1512 76.5412 53.9957 73.9446C57.8402 71.3479 60 67.8261 60 64.1538V48" stroke="#1E3A5F" stroke-width="5" stroke-linecap="round" stroke-linejoin="round"/>
<path d="M39.5 30.4474C34.2217 30.4474 29.7617 34.6684 28.3217 40.0899C27.6883 42.474 28.6433 45.0046 30.9875 46.1936C32.8458 47.1361 35.61 48 39.5 48C43.39 48 46.155 47.1361 48.0133 46.1936C50.3575 45.0046 51.3117 42.474 50.6783 40.0899C49.2383 34.6676 44.7783 30.4474 39.5 30.4474ZM22 29.2599C22 31.3677 23.4917 33.5 25.3333 33.5C27.175 33.5 28.6667 31.3677 28.6667 29.2599C28.6667 27.1521 27.175 25.8684 25.3333 25.8684C23.4917 25.8684 22 27.1528 22 29.2599ZM57 29.2599C57 31.3677 55.5083 33.5 53.6667 33.5C51.825 33.5 50.3333 31.3677 50.3333 29.2599C50.3333 27.1521 51.825 25.8684 53.6667 25.8684C55.5083 25.8684 57 27.1528 57 29.2599ZM30.75 22.3915C30.75 24.4993 32.2417 26.6316 34.0833 26.6316C35.925 26.6316 37.4167 24.4993 37.4167 22.3915C37.4167 20.2836 35.925 19 34.0833 19C32.2417 19 30.75 20.2844 30.75 22.3915ZM48.25 22.3915C48.25 24.4993 46.7583 26.6316 44.9167 26.6316C43.075 26.6316 41.5833 24.4993 41.5833 22.3915C41.5833 20.2836 43.075 19 44.9167 19C46.7583 19 48.25 20.2844 48.25 22.3915Z" stroke="#EEB541" stroke-width="3" stroke-linecap="round" stroke-linejoin="round"/>
</g>
<defs>
<clipPath id="clip0_619_28">
<rect width="80" height="80" fill="white"/>
</clipPath>
</defs>
</svg>
