<svg width="80" height="80" viewBox="0 0 80 80" fill="none" xmlns="http://www.w3.org/2000/svg">
<g clip-path="url(#clip0_619_5)">
<path d="M37.3037 1.88375C38.2204 -0.629583 41.7771 -0.62625 42.6971 1.88375L49.0904 19.3438C50.0618 21.9966 51.5998 24.4057 53.5975 26.4034C55.5951 28.401 58.0043 29.9391 60.6571 30.9104L78.1138 37.3038C80.6304 38.2204 80.6304 41.7771 78.1138 42.6971L60.6571 49.0904C58.0043 50.0618 55.5951 51.5998 53.5975 53.5975C51.5998 55.5951 50.0618 58.0043 49.0904 60.6571L42.6971 78.1138C41.7771 80.6304 38.2204 80.6304 37.3037 78.1138L30.9104 60.6571C29.9391 58.0043 28.401 55.5951 26.4034 53.5975C24.4057 51.5998 21.9966 50.0618 19.3437 49.0904L1.88375 42.6971C-0.62625 41.7771 -0.629583 38.2238 1.88375 37.3038L19.3437 30.9104C21.9966 29.9391 24.4057 28.401 26.4034 26.4034C28.401 24.4057 29.9391 21.9966 30.9104 19.3438L37.3037 1.88375ZM35.6204 21.0704C34.3973 24.4068 32.4621 27.4367 29.9494 29.9494C27.4367 32.4621 24.4068 34.3973 21.0704 35.6204L9.10042 40.0004L21.0704 44.3838C24.4079 45.6049 27.4388 47.5394 29.9518 50.0524C32.4647 52.5654 34.3993 55.5963 35.6204 58.9338L40.0004 70.8971L44.3837 58.9338C45.6049 55.5963 47.5394 52.5654 50.0524 50.0524C52.5654 47.5394 55.5963 45.6049 58.9338 44.3838L70.8971 40.0004L58.9338 35.6204C55.5963 34.3993 52.5654 32.4647 50.0524 29.9518C47.5394 27.4388 45.6049 24.4079 44.3837 21.0704L40.0004 9.10042L35.6204 21.0704Z" fill="#1E3A5F"/>
<path d="M39.5 37.4737C36.0314 37.4737 33.1005 40.9669 32.1542 45.4537C31.738 47.4267 32.3656 49.5211 33.9061 50.5051C35.1273 51.2851 36.9437 52 39.5 52C42.0563 52 43.8733 51.2851 45.0945 50.5051C46.6349 49.5211 47.262 47.4267 46.8458 45.4537C45.8995 40.9663 42.9686 37.4737 39.5 37.4737ZM28 36.4909C28 38.2354 28.9802 40 30.1905 40C31.4007 40 32.381 38.2354 32.381 36.4909C32.381 34.7465 31.4007 33.6842 30.1905 33.6842C28.9802 33.6842 28 34.7472 28 36.4909ZM51 36.4909C51 38.2354 50.0198 40 48.8095 40C47.5993 40 46.619 38.2354 46.619 36.4909C46.619 34.7465 47.5993 33.6842 48.8095 33.6842C50.0198 33.6842 51 34.7472 51 36.4909ZM33.75 30.8067C33.75 32.5512 34.7302 34.3158 35.9405 34.3158C37.1507 34.3158 38.131 32.5512 38.131 30.8067C38.131 29.0623 37.1507 28 35.9405 28C34.7302 28 33.75 29.0629 33.75 30.8067ZM45.25 30.8067C45.25 32.5512 44.2698 34.3158 43.0595 34.3158C41.8493 34.3158 40.869 32.5512 40.869 30.8067C40.869 29.0623 41.8493 28 43.0595 28C44.2698 28 45.25 29.0629 45.25 30.8067Z" stroke="#EEB541" stroke-width="2" stroke-linecap="round" stroke-linejoin="round"/>
</g>
<defs>
<clipPath id="clip0_619_5">
<rect width="80" height="80" fill="white"/>
</clipPath>
</defs>
</svg>
