<svg width="80" height="80" viewBox="0 0 80 80" fill="none" xmlns="http://www.w3.org/2000/svg">
<g clip-path="url(#clip0_619_372)">
<path d="M47.1921 51.6553C40.2003 48.0685 31.5655 47.7634 23.4972 49.1103C15.5489 50.4765 8.01472 53.2418 1.3675 57.2327C0.665681 57.661 0.190313 58.3116 0.0459756 59.0415C-0.0254933 59.4029 -0.013541 59.7729 0.0811497 60.1303C0.17584 60.4877 0.351416 60.8256 0.59785 61.1246C0.844284 61.4236 1.15675 61.678 1.51741 61.8731C1.87807 62.0682 2.27986 62.2003 2.69984 62.2618C3.11982 62.3233 3.54977 62.313 3.96513 62.2315C4.38049 62.15 4.77313 61.999 5.12064 61.7869C11.0134 58.2544 17.6882 55.8036 24.7295 54.5873C31.9374 53.3892 38.7605 53.8245 43.867 56.4476C44.3086 56.671 44.7093 56.9493 45.0561 57.2736C45.3808 57.5717 45.6247 57.928 45.77 58.317C45.9154 58.7059 45.9586 59.1178 45.8965 59.5228C45.8345 59.9279 45.6687 60.3161 45.4112 60.6593C45.1537 61.0026 44.8109 61.2924 44.4075 61.5078L44.2778 61.519C42.211 61.7013 39.7809 61.7497 37.0655 61.5302C36.6366 61.4872 36.202 61.5183 35.7873 61.6218C35.3726 61.7253 34.986 61.899 34.6503 62.1327C34.3147 62.3664 34.0366 62.6555 33.8325 62.983C33.6284 63.3104 33.5023 63.6697 33.4617 64.0396C33.4211 64.4095 33.4668 64.7827 33.5961 65.1373C33.7253 65.4918 33.9356 65.8206 34.2144 66.1043C34.4933 66.3879 34.8353 66.6208 35.2202 66.7893C35.6051 66.9578 36.0252 67.0584 36.4559 67.0852C39.2339 67.3172 42.0316 67.3172 44.8096 67.0852C45.0777 67.0728 45.3357 67.048 45.5836 67.0108C46.085 66.9584 46.5853 66.8976 47.084 66.8285C51.8446 66.1774 55.6842 64.0082 58.806 61.9804L66.6193 56.8978C67.4514 56.3917 68.4454 56.12 69.4644 56.12C70.4834 56.12 71.4774 56.3917 72.3095 56.8978C73.6543 57.7722 73.7321 58.8661 73.183 59.6251C71.3626 62.1329 68.9801 65.076 66.8485 66.7727C64.7427 68.4545 61.422 70.0693 58.4688 71.2971C55.5199 72.5212 52.1732 73.2616 48.593 73.7602C41.3308 74.7592 33.9185 74.6193 26.7141 73.3472C22.2476 72.551 17.608 72.1417 13.0161 72.1417H3.24407C2.38399 72.1417 1.55915 72.4357 0.950981 72.959C0.342816 73.4824 0.00115326 74.1922 0.00115326 74.9323C0.00115326 75.6724 0.342816 76.3821 0.950981 76.9055C1.55915 77.4288 2.38399 77.7228 3.24407 77.7228H13.0161C17.1775 77.7266 21.3278 78.0918 25.404 78.813C33.3081 80.212 41.6272 80.3869 49.6264 79.2706C53.5395 78.7237 57.5608 77.8716 61.288 76.3238C64.3536 75.0476 68.4051 73.1389 71.2588 70.8692C74.078 68.6219 76.8453 65.1132 78.683 62.5757C81.273 59.0075 79.8288 54.7919 76.2183 52.4478C74.2598 51.211 71.8938 50.544 69.4644 50.544C67.0351 50.544 64.669 51.211 62.7105 52.4478L54.8929 57.5266C54.0541 58.0748 53.2225 58.5796 52.398 59.041C52.3591 57.0839 51.5203 55.1305 49.8945 53.5603C49.0946 52.7864 48.1693 52.1576 47.1921 51.6553Z" fill="#1E3A5F"/>
<path fill-rule="evenodd" clip-rule="evenodd" d="M67.3277 4.70032C73.0006 6.50525 76.6975 11.5599 76.6975 18.1861C76.6975 22.3485 74.1983 26.1835 71.4094 29.2367C68.5427 32.3841 64.9193 35.204 61.7455 37.3937L61.3434 37.672C58.2648 39.8003 55.7224 41.5602 51.8352 41.5602C47.9437 41.5602 45.4099 39.8003 42.3313 37.672L41.9248 37.3937C38.7511 35.204 35.1277 32.3841 32.2609 29.2408C29.4807 26.1835 26.9728 22.3485 26.9728 18.1861C26.9728 11.5599 30.6697 6.50935 36.3427 4.70032C41.1854 3.15733 46.8152 4.17644 51.8352 7.63487C56.8552 4.17644 62.4892 3.15733 67.3277 4.70032ZM65.2609 10.5203C62.4417 9.61988 58.2345 10.2011 54.0317 13.86C53.4333 14.3806 52.6501 14.6695 51.8373 14.6695C51.0246 14.6695 50.2414 14.3806 49.643 13.86C45.4358 10.2011 41.233 9.61988 38.4138 10.5203C35.7071 11.3798 33.4587 13.8519 33.4587 18.1861C33.4587 20.0975 34.691 22.5041 37.1729 25.2299C39.577 27.8697 42.7593 30.3745 45.7471 32.4332C49.3922 34.9503 50.257 35.421 51.8352 35.421C53.4134 35.421 54.2782 34.9503 57.9275 32.4332C60.911 30.3745 64.0934 27.8697 66.4975 25.2299C68.9837 22.5041 70.216 20.0975 70.216 18.1861C70.216 13.8478 67.9633 11.3798 65.2609 10.5203Z" fill="#EEB541"/>
</g>
<defs>
<clipPath id="clip0_619_372">
<rect width="80" height="80" fill="white"/>
</clipPath>
</defs>
</svg>
